<svg width="700" height="513" viewBox="0 0 700 513" fill="none" xmlns="http://www.w3.org/2000/svg">
<path d="M490 499.038C461.835 499.015 434.17 499.091 406.506 498.913C396.139 498.846 386.193 500.464 377.077 505.402C358.618 515.402 340.217 515.439 321.687 505.823C311.525 500.549 300.68 498.949 289.325 498.962C199.831 499.062 110.336 499.02 20.8416 499.004C7.02623 499.001 0.78258 492.669 0.78229 478.765C0.779116 327.274 0.777834 175.783 0.786776 24.2914C0.787036 19.9751 0.512515 15.6461 2.2087 11.4761C4.89418 4.87378 10.4599 0.742101 17.5841 0.739324C99.9127 0.707341 182.248 0.141851 264.567 1.0322C294.949 1.36085 322.687 11.873 345.561 32.8182C349.452 36.3815 351.827 35.8145 355.43 32.6227C376.325 14.1107 401.049 4.56086 428.623 1.51648C436.124 0.688269 443.577 0.736547 451.055 0.732427C527.218 0.690435 603.38 0.706732 679.542 0.712408C693.096 0.713446 699.323 6.98166 699.323 20.5922C699.326 173.75 699.235 326.908 699.506 480.066C699.527 492.213 691.357 499.223 680.486 499.169C617.159 498.855 553.829 499.029 490 499.038ZM671.653 240.5C671.652 172.175 671.652 103.85 671.646 35.5252C671.646 28.3876 671.632 28.3777 664.458 28.3773C591.634 28.3731 518.809 28.3639 445.984 28.3854C439.503 28.3874 433.049 28.3548 426.558 29.2135C405.736 31.9682 387.669 40.3609 372.374 54.716C366.783 59.963 364.118 66.1065 364.132 74.1733C364.344 194.658 364.285 315.144 364.326 435.63C364.326 437.371 363.727 439.28 365.016 440.821C366.415 441.178 367.339 440.412 368.307 439.791C392.079 424.524 418.282 417.186 446.344 417.096C519.334 416.862 592.326 417.012 665.317 417.025C671.643 417.026 671.649 417.081 671.65 410.48C671.652 354.153 671.652 297.827 671.653 240.5ZM28.3492 169.5C28.3493 249.809 28.3477 330.118 28.3522 410.427C28.3525 416.975 28.3715 416.976 35.0497 417.024C36.0493 417.031 37.049 417.022 38.0487 417.022C109.027 417.024 180.005 416.969 250.983 417.058C279.874 417.094 307.046 423.618 331.612 439.421C332.66 440.094 333.691 441.209 335.258 440.54C336.143 438.648 335.799 436.623 335.799 434.663C335.812 314.366 335.766 194.07 335.894 73.7732C335.901 67.2992 333.969 62.1151 329.713 57.5076C311.841 38.1625 289.159 28.7646 263.413 28.5775C187.274 28.0243 111.128 28.3726 34.9844 28.3742C28.3739 28.3743 28.3549 28.3944 28.3539 35.0407C28.3476 79.5271 28.3501 124.013 28.3492 169.5ZM459.5 472.645C527.499 472.643 595.498 472.64 663.496 472.637C664.83 472.637 666.168 472.557 667.495 472.643C670.48 472.836 671.718 471.503 671.666 468.514C671.565 462.85 671.326 457.158 671.744 451.522C672.122 446.436 670.359 444.992 665.298 445.003C591.633 445.167 517.968 445.184 444.303 445.131C421.033 445.114 400.111 452.264 381.086 465.3C375.53 469.107 369.98 473.052 365.491 478.619C367.685 479.29 369.189 478.547 370.707 477.973C381.117 474.042 391.876 472.481 403.002 472.595C421.499 472.786 440 472.646 459.5 472.645ZM211.5 445.13C168.862 445.126 126.223 445.124 83.5849 445.117C67.2624 445.115 50.9357 445.312 34.6199 444.978C29.3996 444.871 27.8621 446.603 28.2687 451.558C28.6487 456.191 28.3439 460.879 28.3499 465.542C28.3591 472.634 28.3625 472.643 35.5281 472.644C119.806 472.646 204.083 472.692 288.36 472.6C302.406 472.585 316.288 473.06 329.546 478.426C330.564 478.838 331.945 479.426 333.285 478.368C332.797 477.685 332.496 477.069 332.027 476.636C312.064 458.188 288.932 446.579 261.461 445.411C245.166 444.719 228.822 445.185 211.5 445.13Z" fill="black"/>
</svg>
