<svg width="154" height="141" viewBox="0 0 154 141" fill="none" xmlns="http://www.w3.org/2000/svg">
<g filter="url(#filter0_di_6_86)">
<path d="M72.9528 119.974C71.4698 120.166 71.5142 119.269 71.5149 118.337C71.5241 105.766 71.5212 93.1956 71.5211 80.6248C71.5211 80.1868 71.4929 79.7469 71.5242 79.3112C71.614 78.0619 71.0564 77.5975 69.8138 77.6351C67.5884 77.7023 65.3595 77.6561 63.1321 77.6546C61.3032 77.6534 61.3018 77.6517 61.3009 75.7573C61.2997 73.3045 61.2581 70.8505 61.3204 68.3993C61.349 67.2767 61.0066 66.8371 59.8331 66.8657C57.0395 66.9339 54.2424 66.8482 51.4484 66.9055C50.3864 66.9272 49.9815 66.6104 50.0078 65.4997C50.0721 62.7856 50.0313 60.0689 50.0264 57.3532C50.0232 55.5899 50.0181 55.5827 48.2992 55.5822C38.4723 55.5791 28.6454 55.5802 18.8186 55.5789C17.008 55.5786 17.0046 55.5764 17.0022 53.8017C16.9988 51.2175 17.0001 48.6332 17.001 46.049C17.0017 44.0974 17.0028 44.0955 18.898 44.0956C31.6948 44.0963 44.4915 44.0979 57.2883 44.0989C58.0745 44.099 58.8643 44.0483 59.6459 44.1075C60.9059 44.2028 61.3269 43.6596 61.3178 42.4141C61.275 36.5013 61.3309 30.5877 61.274 24.6752C61.262 23.4301 61.5945 22.9748 62.8835 23.0285C65.1944 23.1247 67.515 22.9875 69.8256 23.087C71.1539 23.1442 71.5506 22.7077 71.5461 21.3792C71.5037 8.8523 71.5212 -3.67476 71.5212 -16.2018C71.5212 -18.9998 71.5208 -19.0001 74.2805 -19C76.639 -18.9999 78.9974 -19.0003 81.3558 -18.9979C83.2352 -18.996 83.237 -18.9943 83.237 -17.1624C83.2375 -4.32876 83.2367 8.50485 83.2379 21.3385C83.238 23.0525 83.242 23.0551 84.9749 23.058C86.9402 23.0613 88.9056 23.0585 90.871 23.0597C92.5608 23.0608 92.5668 23.0616 92.5689 24.8138C92.5761 30.683 92.6151 36.5525 92.5555 42.4211C92.5418 43.7704 92.9922 44.1248 94.2914 44.121C107.918 44.0806 121.545 44.0957 135.171 44.0961C136.964 44.0961 136.966 44.0976 136.97 45.8846C136.976 48.7754 136.958 51.6666 136.999 54.5569C137.012 55.3903 136.813 55.6787 135.898 55.6732C125.81 55.6126 115.722 55.6132 105.634 55.5712C104.611 55.567 104.373 56.0796 104.379 56.9589C104.398 59.7181 104.32 62.4803 104.423 65.2359C104.475 66.6086 103.991 66.9585 102.696 66.9135C100.122 66.8241 97.5427 66.8727 94.9661 66.8975C93.3152 66.9134 93.1972 67.058 93.195 68.7192C93.1919 71.172 93.1997 73.6249 93.1914 76.0777C93.1898 76.5526 93.2744 77.0441 92.9437 77.6536C91.4259 77.6536 89.8217 77.6531 88.2174 77.6538C86.9072 77.6544 85.5969 77.6668 84.2868 77.6537C83.58 77.6466 83.2302 77.9586 83.2442 78.676C83.2519 79.07 83.2374 79.4644 83.2374 79.8585C83.2375 92.6921 83.2381 105.526 83.2386 118.359C83.2387 118.834 83.2386 119.309 83.2386 119.974C79.7723 119.974 76.4266 119.974 72.9528 119.974ZM61.4922 45.5295C61.489 48.3328 61.5349 51.1375 61.4594 53.9388C61.4273 55.1297 61.8779 55.4403 62.9907 55.412C65.5223 55.3476 68.0579 55.4395 70.5893 55.3718C71.7009 55.3421 72.0094 55.7526 71.9868 56.8165C71.9281 59.5747 72.0039 62.3358 71.9492 65.0943C71.9283 66.1456 72.3198 66.4633 73.329 66.4428C75.9049 66.3903 78.4831 66.3903 81.0591 66.4401C82.0458 66.4591 82.3567 66.0787 82.343 65.1298C82.3031 62.3708 82.3788 59.6095 82.3007 56.8521C82.2673 55.6702 82.6857 55.3369 83.8116 55.3715C86.0806 55.4411 88.3533 55.3934 90.6245 55.3877C92.2081 55.3837 92.4393 55.1985 92.4652 53.5815C92.5039 51.1731 92.4435 48.7631 92.479 46.3546C92.4973 45.1147 91.976 44.642 90.7433 44.672C88.4299 44.7285 86.1136 44.6542 83.7995 44.6904C82.6941 44.7077 82.2682 44.3206 82.3038 43.1531C82.3838 40.5275 82.3193 37.8976 82.3336 35.2696C82.3378 34.4988 82.1397 34.0139 81.2374 34.0238C78.7045 34.0514 76.1711 34.0278 73.638 34.0441C72.502 34.0514 71.8969 34.4973 71.9425 35.7992C72.0298 38.2929 71.9035 40.7944 72.0007 43.2873C72.0481 44.5002 71.6316 44.7738 70.5044 44.7145C68.1965 44.5932 65.8815 44.577 63.5696 44.5815C62.8351 44.583 61.9584 44.3912 61.4922 45.5295Z" fill="#3A5EFC"/>
</g>
<defs>
<filter id="filter0_di_6_86" x="0.9" y="-31.1" width="152.2" height="171.2" filterUnits="userSpaceOnUse" color-interpolation-filters="sRGB">
<feFlood flood-opacity="0" result="BackgroundImageFix"/>
<feColorMatrix in="SourceAlpha" type="matrix" values="0 0 0 0 0 0 0 0 0 0 0 0 0 0 0 0 0 0 127 0" result="hardAlpha"/>
<feOffset dy="4"/>
<feGaussianBlur stdDeviation="8.05"/>
<feComposite in2="hardAlpha" operator="out"/>
<feColorMatrix type="matrix" values="0 0 0 0 0 0 0 0 0 0 0 0 0 0 0 0 0 0 1 0"/>
<feBlend mode="normal" in2="BackgroundImageFix" result="effect1_dropShadow_6_86"/>
<feBlend mode="normal" in="SourceGraphic" in2="effect1_dropShadow_6_86" result="shape"/>
<feColorMatrix in="SourceAlpha" type="matrix" values="0 0 0 0 0 0 0 0 0 0 0 0 0 0 0 0 0 0 127 0" result="hardAlpha"/>
<feOffset dy="-4"/>
<feGaussianBlur stdDeviation="2"/>
<feComposite in2="hardAlpha" operator="arithmetic" k2="-1" k3="1"/>
<feColorMatrix type="matrix" values="0 0 0 0 0 0 0 0 0 0 0 0 0 0 0 0 0 0 0.33 0"/>
<feBlend mode="normal" in2="shape" result="effect2_innerShadow_6_86"/>
</filter>
</defs>
</svg>
