<svg width="124" height="124" viewBox="0 0 124 124" fill="none" xmlns="http://www.w3.org/2000/svg">
<g filter="url(#filter0_di_6_88)">
<path d="M62.6732 11.0336C64.2789 11.0338 65.7233 11.1082 67.1566 11.013C68.5333 10.9215 68.9954 11.4442 68.9868 12.8158C68.9421 19.925 68.9919 27.0347 68.9608 34.144C68.9434 38.1097 69.0529 37.3141 72.1773 37.3613C74.7789 37.4006 77.3841 37.4368 79.983 37.3435C81.3944 37.2929 81.7893 37.8294 81.7546 39.176C81.6773 42.1733 81.7316 45.1741 81.7338 48.1734C81.7357 50.6942 81.7367 50.7034 84.1882 50.7048C91.7735 50.7092 99.3593 50.7491 106.944 50.6708C108.55 50.6543 109.05 51.1251 108.996 52.7361C108.883 56.1204 108.889 59.5135 108.995 62.8983C109.044 64.4877 108.42 64.8872 106.961 64.8765C99.4872 64.8215 92.0125 64.8417 84.5379 64.8296C82.069 64.8257 82.0673 64.8176 82.0663 67.2955C82.0648 70.8923 82.0659 74.4892 82.0659 78.2876C78.8495 78.2876 75.822 78.3036 72.7947 78.2837C68.4392 78.2551 68.9952 78.3326 68.993 82.0545C68.9887 89.0529 68.9624 96.0516 69.0205 103.05C69.0321 104.447 68.716 105.044 67.1826 104.997C63.753 104.894 60.3176 104.933 56.8856 104.987C55.6961 105.005 55.168 104.643 55.2285 103.377C55.308 101.715 55.186 100.043 55.259 98.3799C55.3859 95.4914 54.9908 92.6295 54.9239 89.7533C54.8504 86.5963 55.3717 83.4612 55.2896 80.292C55.2511 78.8095 54.6728 78.2977 53.3349 78.2991C50.2344 78.3025 47.1297 78.1992 44.0349 78.3313C42.3058 78.4051 41.8544 77.7957 41.9181 76.1441C42.0379 73.0383 41.8788 69.922 41.9835 66.8152C42.0368 65.234 41.4256 64.818 39.9498 64.8272C32.4756 64.874 25.0008 64.8441 17.5263 64.8348C15.0352 64.8317 15.0334 64.8232 15.032 62.4102C15.0303 59.1332 15.0958 55.8543 15.0026 52.5799C14.9611 51.1241 15.4152 50.6605 16.8827 50.673C24.4675 50.7376 32.0531 50.7076 39.6384 50.705C41.8632 50.7042 41.9462 50.6164 41.9508 48.3258C41.9571 45.2154 41.9949 42.1041 41.9338 38.9949C41.9098 37.773 42.3256 37.3291 43.5559 37.3515C46.8215 37.4112 50.0903 37.3132 53.3549 37.3961C54.8117 37.4331 55.2807 36.9203 55.2703 35.4714C55.2168 27.9734 55.2853 20.4745 55.2125 12.9768C55.1975 11.4293 55.6845 10.9186 57.1935 11.0103C58.9587 11.1176 60.7354 11.0343 62.6732 11.0336ZM55.5597 51.9253C55.5337 55.6456 55.5285 59.3662 55.4683 63.0859C55.451 64.1521 55.9659 64.4051 56.8989 64.3988C60.3322 64.3753 63.7662 64.3622 67.1992 64.4066C68.3727 64.4217 68.9108 64.0605 68.8888 62.7904C68.8309 59.4581 68.8355 56.1235 68.8891 52.791C68.9076 51.6373 68.5114 51.2215 67.3516 51.2396C63.9742 51.2922 60.5955 51.2497 57.2174 51.259C56.6789 51.2604 56.0904 51.1501 55.5597 51.9253Z" fill="#3A5EFC"/>
</g>
<defs>
<filter id="filter0_di_6_88" x="0" y="0" width="124" height="124" filterUnits="userSpaceOnUse" color-interpolation-filters="sRGB">
<feFlood flood-opacity="0" result="BackgroundImageFix"/>
<feColorMatrix in="SourceAlpha" type="matrix" values="0 0 0 0 0 0 0 0 0 0 0 0 0 0 0 0 0 0 127 0" result="hardAlpha"/>
<feOffset dy="4"/>
<feGaussianBlur stdDeviation="7.5"/>
<feComposite in2="hardAlpha" operator="out"/>
<feColorMatrix type="matrix" values="0 0 0 0 0 0 0 0 0 0 0 0 0 0 0 0 0 0 1 0"/>
<feBlend mode="normal" in2="BackgroundImageFix" result="effect1_dropShadow_6_88"/>
<feBlend mode="normal" in="SourceGraphic" in2="effect1_dropShadow_6_88" result="shape"/>
<feColorMatrix in="SourceAlpha" type="matrix" values="0 0 0 0 0 0 0 0 0 0 0 0 0 0 0 0 0 0 127 0" result="hardAlpha"/>
<feOffset dy="-4"/>
<feGaussianBlur stdDeviation="2"/>
<feComposite in2="hardAlpha" operator="arithmetic" k2="-1" k3="1"/>
<feColorMatrix type="matrix" values="0 0 0 0 0 0 0 0 0 0 0 0 0 0 0 0 0 0 0.33 0"/>
<feBlend mode="normal" in2="shape" result="effect2_innerShadow_6_88"/>
</filter>
</defs>
</svg>
