<svg width="154" height="171" viewBox="0 0 154 171" fill="none" xmlns="http://www.w3.org/2000/svg">
<g filter="url(#filter0_di_6_86)">
<path d="M72.9528 149.974C71.4698 150.166 71.5142 149.269 71.5149 148.337C71.5241 135.766 71.5212 123.196 71.5211 110.625C71.5211 110.187 71.4929 109.747 71.5242 109.311C71.614 108.062 71.0564 107.598 69.8138 107.635C67.5884 107.702 65.3595 107.656 63.1321 107.655C61.3032 107.653 61.3018 107.652 61.3009 105.757C61.2997 103.304 61.2581 100.851 61.3204 98.3993C61.349 97.2767 61.0066 96.8371 59.8331 96.8657C57.0395 96.9339 54.2424 96.8482 51.4484 96.9055C50.3864 96.9272 49.9815 96.6104 50.0078 95.4997C50.0721 92.7856 50.0313 90.0689 50.0264 87.3532C50.0232 85.5899 50.0181 85.5827 48.2992 85.5822C38.4723 85.5791 28.6454 85.5802 18.8186 85.5789C17.008 85.5786 17.0046 85.5764 17.0022 83.8017C16.9988 81.2175 17.0001 78.6332 17.001 76.049C17.0017 74.0974 17.0028 74.0955 18.898 74.0956C31.6948 74.0963 44.4915 74.0979 57.2883 74.0989C58.0745 74.099 58.8643 74.0483 59.6459 74.1075C60.9059 74.2028 61.3269 73.6596 61.3178 72.4141C61.275 66.5013 61.3309 60.5877 61.274 54.6752C61.262 53.4301 61.5945 52.9748 62.8835 53.0285C65.1944 53.1247 67.515 52.9875 69.8256 53.087C71.1539 53.1442 71.5506 52.7077 71.5461 51.3792C71.5037 38.8523 71.5212 26.3252 71.5212 13.7982C71.5212 11.0002 71.5208 10.9999 74.2805 11C76.639 11.0001 78.9974 10.9997 81.3558 11.0021C83.2352 11.004 83.237 11.0057 83.237 12.8376C83.2375 25.6712 83.2367 38.5048 83.2379 51.3385C83.238 53.0525 83.242 53.0551 84.9749 53.058C86.9402 53.0613 88.9056 53.0585 90.871 53.0597C92.5608 53.0608 92.5668 53.0616 92.5689 54.8138C92.5761 60.683 92.6151 66.5525 92.5555 72.4211C92.5418 73.7704 92.9922 74.1248 94.2914 74.121C107.918 74.0806 121.545 74.0957 135.171 74.0961C136.964 74.0961 136.966 74.0976 136.97 75.8846C136.976 78.7754 136.958 81.6666 136.999 84.5569C137.012 85.3903 136.813 85.6787 135.898 85.6732C125.81 85.6126 115.722 85.6132 105.634 85.5712C104.611 85.567 104.373 86.0796 104.379 86.9589C104.398 89.7181 104.32 92.4803 104.423 95.2359C104.475 96.6086 103.991 96.9585 102.696 96.9135C100.122 96.8241 97.5427 96.8727 94.9661 96.8975C93.3152 96.9134 93.1972 97.058 93.195 98.7192C93.1919 101.172 93.1997 103.625 93.1914 106.078C93.1898 106.553 93.2744 107.044 92.9437 107.654C91.4259 107.654 89.8217 107.653 88.2174 107.654C86.9072 107.654 85.5969 107.667 84.2868 107.654C83.58 107.647 83.2302 107.959 83.2442 108.676C83.2519 109.07 83.2374 109.464 83.2374 109.859C83.2375 122.692 83.2381 135.526 83.2386 148.359C83.2387 148.834 83.2386 149.309 83.2386 149.974C79.7723 149.974 76.4266 149.974 72.9528 149.974ZM61.4922 75.5295C61.489 78.3328 61.5349 81.1375 61.4594 83.9388C61.4273 85.1297 61.8779 85.4403 62.9907 85.412C65.5223 85.3476 68.0579 85.4395 70.5893 85.3718C71.7009 85.3421 72.0094 85.7526 71.9868 86.8165C71.9281 89.5747 72.0039 92.3358 71.9492 95.0943C71.9283 96.1456 72.3198 96.4633 73.329 96.4428C75.9049 96.3903 78.4831 96.3903 81.0591 96.4401C82.0458 96.4591 82.3567 96.0787 82.343 95.1298C82.3031 92.3708 82.3788 89.6095 82.3007 86.8521C82.2673 85.6702 82.6857 85.3369 83.8116 85.3715C86.0806 85.4411 88.3533 85.3934 90.6245 85.3877C92.2081 85.3837 92.4393 85.1985 92.4652 83.5815C92.5039 81.1731 92.4435 78.7631 92.479 76.3546C92.4973 75.1147 91.976 74.642 90.7433 74.672C88.4299 74.7285 86.1136 74.6542 83.7995 74.6904C82.6941 74.7077 82.2682 74.3206 82.3038 73.1531C82.3838 70.5275 82.3193 67.8976 82.3336 65.2696C82.3378 64.4988 82.1397 64.0139 81.2374 64.0238C78.7045 64.0514 76.1711 64.0278 73.638 64.0441C72.502 64.0514 71.8969 64.4973 71.9425 65.7992C72.0298 68.2929 71.9035 70.7944 72.0007 73.2873C72.0481 74.5002 71.6316 74.7738 70.5044 74.7145C68.1965 74.5932 65.8815 74.577 63.5696 74.5815C62.8351 74.583 61.9584 74.3912 61.4922 75.5295Z" fill="#3A5EFC"/>
</g>
<defs>
<filter id="filter0_di_6_86" x="0.9" y="-1.1" width="152.2" height="171.2" filterUnits="userSpaceOnUse" color-interpolation-filters="sRGB">
<feFlood flood-opacity="0" result="BackgroundImageFix"/>
<feColorMatrix in="SourceAlpha" type="matrix" values="0 0 0 0 0 0 0 0 0 0 0 0 0 0 0 0 0 0 127 0" result="hardAlpha"/>
<feOffset dy="4"/>
<feGaussianBlur stdDeviation="8.05"/>
<feComposite in2="hardAlpha" operator="out"/>
<feColorMatrix type="matrix" values="0 0 0 0 0 0 0 0 0 0 0 0 0 0 0 0 0 0 1 0"/>
<feBlend mode="normal" in2="BackgroundImageFix" result="effect1_dropShadow_6_86"/>
<feBlend mode="normal" in="SourceGraphic" in2="effect1_dropShadow_6_86" result="shape"/>
<feColorMatrix in="SourceAlpha" type="matrix" values="0 0 0 0 0 0 0 0 0 0 0 0 0 0 0 0 0 0 127 0" result="hardAlpha"/>
<feOffset dy="-4"/>
<feGaussianBlur stdDeviation="2"/>
<feComposite in2="hardAlpha" operator="arithmetic" k2="-1" k3="1"/>
<feColorMatrix type="matrix" values="0 0 0 0 0 0 0 0 0 0 0 0 0 0 0 0 0 0 0.33 0"/>
<feBlend mode="normal" in2="shape" result="effect2_innerShadow_6_86"/>
</filter>
</defs>
</svg>
